<svg width="124" height="50" viewBox="0 0 124 50" fill="none" xmlns="http://www.w3.org/2000/svg">
<path d="M99.1565 5.71156L99.4895 6.00889L99.8225 5.71156L104.914 1.16575L110.674 6.30842L104.667 11.6714L104.249 12.0444L104.667 12.4174L111.156 18.2116L111.489 18.5089L111.822 18.2116L117.914 12.7729L123.5 17.7606V17.7996L117.515 23.143L117.098 23.516L117.515 23.8889L123.5 29.2324V42.8571C123.5 46.4741 120.197 49.5 116 49.5H8.5C4.30308 49.5 1 46.4741 1 42.8571V7.14286C1 3.52588 4.30308 0.5 8.5 0.5H93.3195L99.1565 5.71156ZM112.062 6.091L118.044 0.749689C120.95 1.4766 123.101 3.70402 123.45 6.3724L117.914 11.3157L112.062 6.091Z" stroke="#31BEB5"/>
</svg>
