<svg width="484" height="672" viewBox="0 0 484 672" fill="none" xmlns="http://www.w3.org/2000/svg">
<path d="M321.46 671.22L483.5 561.5L392 521L233 613.263L321.46 671.22Z" fill="url(#paint0_linear_6501_979)"/>
<path d="M117.205 325.785L116.822 502.71L0 435.261L0.383216 258.272L117.205 325.785Z" fill="#3B7577"/>
<path d="M237.414 255.973L117.207 325.785L0.385742 258.272L120.529 188.46L237.414 255.973Z" fill="#77BE9C"/>
<path d="M237.407 255.972L237.023 432.897L116.816 502.709L117.2 325.784L237.407 255.972Z" fill="#458989"/>
<path d="M393.057 387.327L235.608 478.817L82.4268 390.424L239.96 298.934L393.057 387.327Z" fill="#A8DBA7"/>
<path d="M249.716 485.485L395.344 388.157L309.171 349.265L161.256 427.528L249.716 485.485Z" fill="url(#paint1_linear_6501_979)"/>
<path d="M234.438 432.386L309.171 348.93L222.999 310.038L116.999 369.854L234.438 432.386Z" fill="url(#paint2_linear_6501_979)"/>
<path d="M393.055 387.326L392.553 522.259L235.104 613.832L235.606 478.816L393.055 387.326Z" fill="#7BBA95"/>
<path d="M235.603 478.815L235.101 613.832L81.9199 525.355L82.4221 390.423L235.603 478.815Z" fill="#6CA487"/>
<path d="M149.027 420.905V420.917L164.502 429.852L167.149 408.173L289.254 337.646C293.624 335.123 297.163 328.99 297.163 323.947L297.148 56.6764L308.191 9.4677L292.708 0.526979L292.699 0.521008L292.672 0.506171L292.669 0.509157C291.24 -0.297171 289.278 -0.172636 287.111 1.07539L154.529 77.6231C150.16 80.1459 146.62 86.2793 146.62 91.3218L146.638 415.753C146.638 418.32 147.557 420.096 149.027 420.905Z" fill="#C8E2FF"/>
<path d="M308.192 9.46746L292.709 0.526735L292.7 0.520764L292.673 0.505927L292.67 0.508913C291.241 -0.297415 289.279 -0.17288 287.112 1.07515L154.53 77.6229C152.346 78.8857 150.368 81.0468 148.937 83.528L219.677 124.366L297.153 80.6999L297.15 56.6702L308.192 9.46746Z" fill="#A5CBFA"/>
<path d="M310.554 14.6237C310.554 9.56932 307.023 7.52976 302.669 10.0584L170.084 86.5943C165.7 89.123 162.169 95.2386 162.169 100.293L162.202 424.739C162.202 429.761 165.732 431.803 170.087 429.307L302.674 352.739C307.059 350.21 310.59 344.091 310.59 339.04L310.554 14.6237ZM298.957 340.564L173.555 412.991C170.632 414.666 168.288 413.326 168.288 409.946L168.196 108.06C168.196 104.71 170.57 100.598 173.463 98.9264L205.613 80.3245L206.375 79.9006C209.298 78.2257 211.642 79.5953 211.642 82.9451V85.0439C211.642 86.5379 212.099 87.6319 212.891 88.2722C212.982 88.3344 213.074 88.3938 213.196 88.453V88.4856C214.142 89.034 215.478 88.9392 216.94 88.0884L255.848 65.6209C258.771 63.949 261.116 59.8669 261.116 56.4874V54.3857C261.116 51.0388 263.491 46.9568 266.384 45.2523L298.898 26.4992C301.791 24.8243 304.163 26.1672 304.163 29.5437L304.225 331.401C304.222 334.777 301.877 338.856 298.957 340.564Z" fill="#DCEEFF"/>
<path d="M223.136 70.264L242.013 59.3608C243.632 58.427 244.945 58.8509 244.945 60.3124C244.945 61.7739 243.632 63.7156 242.013 64.6523L223.136 75.5585C221.517 76.4923 220.204 76.0655 220.204 74.604C220.204 73.1425 221.517 71.1978 223.136 70.264Z" fill="#031F60"/>
<path d="M247.066 58.9925C247.066 60.4095 248.062 60.9817 249.29 60.2762C250.517 59.5677 251.51 57.8453 251.51 56.4283C251.51 55.0083 250.514 54.4362 249.287 55.1447C248.059 55.8532 247.066 57.5785 247.066 58.9925Z" fill="#031F60"/>
<path d="M304.223 331.4C304.223 334.779 301.878 338.858 298.955 340.566L173.553 412.993C170.63 414.668 168.285 413.328 168.285 409.948V408.792L168.193 108.062C168.193 104.712 170.568 100.6 173.461 98.9283L205.61 80.3265L206.372 79.9025C209.295 78.2276 211.64 79.5971 211.64 82.9469V85.0458C211.64 88.4282 214.015 89.7978 216.938 88.0903L255.846 65.6228C258.769 63.9508 261.114 59.8688 261.114 56.4894V54.3876C261.114 51.0408 263.488 46.9587 266.382 45.2541L298.134 26.928L298.896 26.4981C301.789 24.8232 304.16 26.1661 304.16 29.5426L304.223 331.4Z" fill="#031F60"/>
<path d="M298.896 26.495L298.134 26.9249L291.855 30.5474L291.858 328.343L303.44 335.031C303.93 333.821 304.226 332.57 304.226 331.4L304.164 29.5425C304.161 26.1631 301.789 24.8231 298.896 26.495Z" fill="#1E3779"/>
<path d="M298.197 327.624C298.197 331.004 295.852 335.083 292.929 336.787L168.289 408.791L168.197 108.06C168.197 104.71 170.572 100.599 173.465 98.9266L205.614 80.3247V81.2674C205.614 84.6498 207.989 86.0194 210.912 84.3119L211.641 83.888V85.044C211.641 88.4265 214.016 89.7961 216.939 88.0886L255.847 65.6211C258.77 63.9492 261.115 59.8671 261.115 56.4876V54.3859C261.115 51.039 263.489 46.957 266.382 45.2525L298.135 26.9263L298.197 327.624Z" fill="#2B3D89"/>
<path d="M275.044 231.518C289.596 176.593 296.091 79.2795 298.139 41.8031L298.136 26.9216L266.384 45.2478C263.491 46.9524 261.117 51.0344 261.117 54.3812V56.4831C261.117 59.8625 258.772 63.9445 255.849 65.6165L216.941 88.0839C214.018 89.7885 211.643 88.419 211.643 85.0395V83.8833L210.914 84.3073C207.991 86.0118 205.616 84.6422 205.616 81.2628V80.3201L173.467 98.9219C170.574 100.594 168.199 104.706 168.199 108.055L168.279 373.159C169.996 372.065 251.702 319.598 275.044 231.518Z" fill="#344593"/>
<path d="M212.888 88.2685L207.042 84.6133C206.067 83.9463 205.61 82.7872 205.61 81.2635V80.3208L206.372 79.8969C209.295 78.222 211.64 79.5916 211.64 82.9414V85.0402C211.64 86.5343 212.097 87.6282 212.888 88.2685Z" fill="#031F60"/>
<path opacity="0.2" d="M346.884 317.728C347.107 317.18 347.276 316.628 347.403 316.071C347.427 315.97 347.454 315.872 347.471 315.769C347.587 315.202 347.667 314.639 347.667 314.097L347.605 12.2397C347.605 8.86022 345.23 7.52027 342.337 9.19518L341.575 9.62508L335.296 13.2476V13.2506L309.823 27.9513C306.93 29.6558 304.555 33.7378 304.555 37.0847V39.1864C304.555 42.5659 302.21 46.6479 299.287 48.3198L260.379 70.7874C257.456 72.4919 255.082 71.1223 255.082 67.7429V66.5868V65.6441C255.082 62.2943 252.737 60.9247 249.814 62.5996L249.052 63.0265L216.903 81.6284C214.009 83.3003 211.635 87.412 211.635 90.7618L211.727 391.492V392.648C211.727 396.031 214.072 397.368 216.994 395.693L342.396 323.266C344.311 322.151 345.962 320.017 346.884 317.728Z" fill="#E9FFFB"/>
<path d="M346.884 317.728C347.107 317.18 347.276 316.628 347.403 316.071C347.427 315.97 347.454 315.872 347.471 315.769C347.587 315.202 347.667 314.639 347.667 314.097L347.605 12.2397C347.605 8.86022 345.23 7.52027 342.337 9.19518L341.575 9.62508L335.296 13.2476V13.2506L309.823 27.9513C306.93 29.6558 304.555 33.7378 304.555 37.0847V39.1864C304.555 42.5659 302.21 46.6479 299.287 48.3198L260.379 70.7874C257.456 72.4919 255.082 71.1223 255.082 67.7429V66.5868V65.6441C255.082 62.2943 252.737 60.9247 249.814 62.5996L249.052 63.0265L216.903 81.6284C214.009 83.3003 211.635 87.412 211.635 90.7618L211.727 391.492V392.648C211.727 396.031 214.072 397.368 216.994 395.693L342.396 323.266C344.311 322.151 345.962 320.017 346.884 317.728Z" stroke="#E9FFFB" stroke-miterlimit="10"/>
<path opacity="0.8" d="M280.333 96.7375V321.232C280.333 326.274 283.876 328.32 288.245 325.797L396.091 263.529C400.461 261.006 404.001 254.873 404.001 249.83V25.339C404.001 20.2965 400.458 18.248 396.091 20.7737L288.245 83.0388C283.876 85.5616 280.333 91.695 280.333 96.7375Z" fill="#51D2CA"/>
<path d="M280.333 96.7375V321.232C280.333 326.274 283.876 328.32 288.245 325.797L396.091 263.529C400.461 261.006 404.001 254.873 404.001 249.83V25.339C404.001 20.2965 400.458 18.248 396.091 20.7737L288.245 83.0388C283.876 85.5616 280.333 91.695 280.333 96.7375Z" stroke="#E9FFFB" stroke-miterlimit="10" stroke-linecap="round"/>
<path opacity="0.8" d="M295.866 232.457L339.005 207.55C340.751 206.542 342.168 207.357 342.168 209.376V209.554C342.168 211.573 340.754 214.027 339.005 215.035L295.866 239.94C294.12 240.948 292.703 240.132 292.703 238.114V237.936C292.7 235.917 294.117 233.462 295.866 232.457Z" fill="#0B3FA5"/>
<path opacity="0.8" d="M351.298 200.457L388.472 178.994C390.218 177.983 391.635 178.804 391.635 180.82V180.998C391.635 183.017 390.221 185.468 388.472 186.476L351.301 207.939C349.555 208.95 348.138 208.129 348.138 206.113V205.935C348.132 203.919 349.552 201.464 351.298 200.457Z" fill="#0B3FA5"/>
<g opacity="0.8">
<path d="M295.869 267.663L339.008 242.759C340.754 241.751 342.171 242.569 342.171 244.585V244.766C342.171 246.784 340.757 249.239 339.008 250.247L295.869 275.151C294.123 276.159 292.706 275.341 292.706 273.325V273.144C292.703 271.125 294.12 268.671 295.869 267.663Z" fill="#0B3FA5"/>
<path d="M351.302 235.665L388.476 214.199C390.222 213.191 391.639 214.009 391.639 216.025V216.206C391.639 218.225 390.225 220.679 388.476 221.687L351.305 243.15C349.559 244.161 348.142 243.34 348.142 241.324V241.146C348.136 239.127 349.556 236.67 351.302 235.665Z" fill="#0B3FA5"/>
</g>
<g opacity="0.8">
<path d="M295.869 250.06L319.223 236.575C320.969 235.567 322.386 236.385 322.386 238.401V238.579C322.386 240.598 320.969 243.052 319.223 244.06L295.869 257.542C294.123 258.55 292.706 257.732 292.706 255.716V255.538C292.703 253.523 294.12 251.068 295.869 250.06Z" fill="#0B3FA5"/>
<path d="M329.705 230.519L349.516 219.017C351.259 218.006 352.676 218.821 352.676 220.837V221.015C352.676 223.033 351.262 225.488 349.516 226.502L329.705 238.004C327.962 239.018 326.548 238.199 326.548 236.184V236.006C326.548 233.99 327.962 231.532 329.705 230.519Z" fill="#0B3FA5"/>
<path d="M360.747 212.519L388.474 196.588C390.223 195.583 391.64 196.407 391.64 198.423V198.604C391.64 200.623 390.22 203.072 388.474 204.076L360.747 220.004C358.998 221.009 357.578 220.191 357.578 218.172V217.992C357.578 215.973 358.998 213.524 360.747 212.519Z" fill="#0B3FA5"/>
</g>
<g opacity="0.8">
<path d="M295.869 285.464L333.494 263.78C335.24 262.772 336.657 263.59 336.657 265.609V265.789C336.657 267.808 335.24 270.26 333.494 271.268L295.869 292.947C294.123 293.955 292.703 293.136 292.703 291.118V290.94C292.703 288.921 294.123 286.469 295.869 285.464Z" fill="#0B3FA5"/>
<path d="M343.982 257.726L363.791 246.224C365.537 245.21 366.951 246.028 366.951 248.044V248.225C366.951 250.243 365.537 252.698 363.791 253.709L343.982 265.211C342.236 266.225 340.822 265.406 340.822 263.394V263.213C340.822 261.197 342.236 258.74 343.982 257.726Z" fill="#0B3FA5"/>
<path d="M375.019 239.726L388.471 231.992C390.22 230.987 391.637 231.806 391.637 233.824V234.005C391.637 236.024 390.217 238.473 388.471 239.48L375.019 247.212C373.27 248.217 371.853 247.398 371.853 245.38V245.202C371.85 243.183 373.27 240.731 375.019 239.726Z" fill="#0B3FA5"/>
</g>
<path opacity="0.8" d="M298.896 205.378L385.422 155.418V55.5107L298.745 105.55L298.896 205.378Z" fill="#0B3FA5"/>
<defs>
<linearGradient id="paint0_linear_6501_979" x1="62.1537" y1="313.087" x2="294.187" y2="692.475" gradientUnits="userSpaceOnUse">
<stop stop-color="#111B22"/>
<stop offset="1" stop-color="#111B22" stop-opacity="0"/>
</linearGradient>
<linearGradient id="paint1_linear_6501_979" x1="-9.59044" y1="127.351" x2="222.443" y2="506.74" gradientUnits="userSpaceOnUse">
<stop stop-color="#111B22"/>
<stop offset="1" stop-color="#111B22" stop-opacity="0"/>
</linearGradient>
<linearGradient id="paint2_linear_6501_979" x1="88.7834" y1="-16.0137" x2="320.817" y2="363.374" gradientUnits="userSpaceOnUse">
<stop stop-color="#111B22"/>
<stop offset="1" stop-color="#111B22" stop-opacity="0"/>
</linearGradient>
</defs>
</svg>
